{"title":"In.Time.(2011) R5 DVDRip H264 Proper Audio AC3 NL Subs","uid":6864205,"size":1472770187,"categoryP":"video","categoryS":"movies","magnet":"?xt=urn:btih:67d23ad6bb2d133d9381eebb0dab4b73cb6b8a0a&amp;dn=In.Time.%282011%29+R5+DVDRip+H264+Proper+Audio+AC3+NL+Subs&amp;tr=udp%3A%2F%2Ftracker.openbittorrent.com%3A80&amp;tr=udp%3A%2F%2Fopen.demonii.com%3A1337&amp;tr=udp%3A%2F%2Ftracker.coppersurfer.tk%3A6969&amp;tr=udp%3A%2F%2Fexodus.desync.com%3A6969","seeders":1,"leechers":0,"uploader":"NLUPPER002","files":-1,"time":1323030074,"description":"In.Time.(2011) R5 DVDRip H264 Proper Audio AC3 NL Subs\n.\nSubs: Vobsubs\n.\n[IMG]http://img213.imageshack.us/img213/2905/75622.jpg[/IMG]\n.\nVerenigde Staten\nSciencefiction / Thriller\n109 minuten\n\ngeregisseerd door Andrew Niccol\nmet Amanda Seyfried, Justin Timberlake en Olivia Wilde\n\nWelkom in een wereld waar tijd het ultieme betaalmiddel is geworden. Het verouderingsproces stopt op de leeftijd van 25 jaar, maar er zit een addertje onder het gras: je bent genetisch gemanipuleerd om nog ÃƒÅ¡ÃƒÅ¡n jaar te leven, tenzij je je nakende dood kan afkopen. De rijken ÃƒÂ´verdienenÃƒÂ¶ tientallen jaren per keer (en blijven 25 jaar), waardoor ze nagenoeg onsterfelijk worden, terwijl de rest genoeg uren bij elkaar smeekt, leent of steelt om de dag door te komen. Wanneer een jonge man (Timberlake) in het bezit komt van een fortuin aan tijd, wordt hij valselijk beschuldigd van moord. Hij wordt gedwongen op de vlucht te slaan met een mooie gijzelaar (Seyfried). De liefde van het duo, dat van minuut tot minuut leeft, wordt een sterk wapen in hun oorlog tegen het systeem.\n\nMomenteel te zien in 44 bioscopen \n. &lt;a href=&quot;\nhttp://www.moviemeter.nl/film/75622&quot; rel=&quot;nofollow&quot; target=&quot;_NEW&quot;&gt;\nhttp://www.moviemeter.nl/film/75622&lt;/a&gt;\n.\nPLOT\n.\nIn a future where people stop aging at 25, but are engineered to live only one more year, having the means to buy your way out of the situation is a shot at immortal youth. Here, Will Salas finds himself accused of murder and on the run with a hostage - a connection that becomes an important part of the way against the system. \n. &lt;a href=&quot;\nhttp://www.imdb.com/title/tt1637688/&quot; rel=&quot;nofollow&quot; target=&quot;_NEW&quot;&gt;\nhttp://www.imdb.com/title/tt1637688/&lt;/a&gt;\n.\nINFO\n.\nFormat/Info                      : Advanced Video Codec\nCodec ID                         : H264\nDuration                         : 1h 15mn\nBit rate                         : 1 498 Kbps\nWidth                            : 720 pixels\nHeight                           : 308 pixels\nDisplay aspect ratio             : 2.35:1\nFrame rate                       : 25.000 fps\nColor space                      : YUV\nChroma subsampling               : 4:2:0\nBits/(Pixel*Frame)               : 0.270\nStream size                      : 813 MiB (58%)\n\nAudio\nID                               : 1\nFormat                           : AC-3\nFormat/Info                      : Audio Coding 3\nMode extension                   : CM (complete main)\nCodec ID                         : 2000\nDuration                         : 1h 15mn\nBit rate mode                    : Constant\nBit rate                         : 384 Kbps\nChannel(s)                       : 6 channels\nChannel positions                : Front: L C R, Side: L R, LFE\nSampling rate                    : 48.0 KHz\nBit depth                        : 16 bits\nStream size                      : 209 MiB (15%)\nAlignment                        : Aligned on interleaves\nInterleave, duration             : 32 ms (0.80 video frame)\nInterleave, preload duration     : 32 ms\n.\nEnjoy\n","torrent":{"xt":"urn:btih:67d23ad6bb2d133d9381eebb0dab4b73cb6b8a0a","amp;dn":"In.Time.%282011%29+R5+DVDRip+H264+Proper+Audio+AC3+NL+Subs","amp;tr":["udp%3A%2F%2Ftracker.openbittorrent.com%3A80","udp%3A%2F%2Fopen.demonii.com%3A1337","udp%3A%2F%2Ftracker.coppersurfer.tk%3A6969","udp%3A%2F%2Fexodus.desync.com%3A6969"],"infoHash":"67d23ad6bb2d133d9381eebb0dab4b73cb6b8a0a","infoHashBuffer":{"type":"Buffer","data":[103,210,58,214,187,45,19,61,147,129,238,187,13,171,75,115,203,107,138,10]},"announce":[],"urlList":[]}}